<svg width="280" height="70" viewBox="0 0 280 70" fill="none" xmlns="http://www.w3.org/2000/svg">
<g clip-path="url(#clip0_154_75)">
<path d="M0.1815 4.39915C0.1815 4.39915 -0.328151 3.37706 0.362901 2.30228C1.05395 1.23277 2.35831 1.31444 2.35831 1.31444H20.5157C20.5157 1.31444 21.9122 1.09316 22.7933 2.85811C23.6744 4.62833 46.4964 39.7508 46.9139 40.5148C47.3372 41.2787 47.1644 42.904 47.1644 42.904L47.1587 67.0232C47.1587 67.0232 46.9456 69.2097 44.7688 69.2097H26.0441C26.0441 69.2097 23.6542 69.049 23.6542 67.0232C23.6542 64.9975 23.6629 42.8039 23.6629 41.8503C23.6629 40.8967 23.0841 40.3146 22.5918 39.6639C22.1109 39.0159 0.1815 4.39915 0.1815 4.39915Z" fill="#0A83B8"/>
<path d="M79.0967 1.31709C77.7319 1.31709 77.2971 2.07312 76.9199 2.61051C76.5485 3.15316 67.4755 16.9856 67.1415 18.0736C66.8219 19.1589 67.1876 65.556 67.1876 66.96C67.1876 68.3641 68.6359 69.1412 69.5775 69.1412H84.6424C85.6991 69.1412 86.8797 68.206 86.8797 66.96C86.8797 65.714 86.9027 39.5243 86.9027 38.7656C86.9027 38.007 88.1841 37.4827 88.6793 38.5654C89.1803 39.6428 101.386 66.8916 101.824 67.8346C102.258 68.7803 103.35 69.1412 104.009 69.1412C104.669 69.1412 110.105 69.1359 110.888 69.1359C111.671 69.1359 112.368 68.7276 112.993 67.6133C113.621 66.4938 125.875 39.2819 126.146 38.6128C126.526 37.6671 127.922 37.8779 127.922 38.7656C127.922 39.6534 128 65.772 128 66.989C128 68.206 129.04 69.1702 130.384 69.1702H145.3C146.644 69.1702 147.689 68.235 147.689 66.989V3.34019C147.689 2.25488 146.428 1.31445 145.3 1.31445H127.98C126.857 1.31445 126.091 1.9335 125.74 2.75012C125.74 2.75012 109.42 34.5482 108.394 36.3816C107.888 37.2773 106.992 37.1508 106.537 36.429C104.991 33.9687 89.1861 3.48771 88.8377 2.61841C88.4893 1.74384 87.4325 1.31445 86.658 1.31445H79.0967V1.31709Z" fill="#0A83B8"/>
<path d="M69.5228 1.31445H30.2481C28.0108 1.31445 27.5098 3.51405 28.054 4.37545L47.7432 35.5755C47.7432 35.5755 48.4054 36.7978 49.8854 36.7978C51.3654 36.7978 52.1256 35.3595 52.1256 35.3595C52.1256 35.3595 70.9251 5.62409 71.6306 4.53351C72.336 3.44556 71.5845 1.31709 69.5257 1.31709M55.2958 11.6486C54.956 12.157 51.1293 18.1947 50.66 18.9244C50.1907 19.6462 49.5658 19.5725 49.2232 19.0087C48.8892 18.4582 44.5787 11.6486 44.5787 11.6486C44.3743 11.3299 44.6306 10.6766 45.2842 10.6766C45.9378 10.6766 54.2247 10.7661 54.5904 10.6766C54.9532 10.6002 55.6241 11.1402 55.2958 11.6486Z" fill="#0A83B8"/>
<path d="M279.882 66.2751C279.441 64.9843 252.246 4.07778 252.246 4.07778C251.661 2.69744 251.16 1.31445 249.398 1.31445H236.455C235.254 1.31445 234.511 2.07839 234.183 2.83705C233.812 3.68528 204.641 65.2372 204.209 66.4727C203.777 67.7082 205.104 69.1623 206.334 69.1623C207.563 69.1623 221.036 69.1675 221.954 69.1675C222.873 69.1675 223.639 68.7645 224.097 67.94C224.552 67.1155 226.965 61.4465 227.276 60.8064C227.581 60.1689 228.237 59.3971 229.507 59.3971H252.735C253.737 59.3971 254.497 59.8713 255.036 61.0172C255.583 62.1578 257.595 66.8415 258.042 67.6081C258.482 68.3773 259.006 69.1649 260.328 69.1649H277.633C279.479 69.1649 280.334 67.5554 279.882 66.2699M247.305 44.2343H235.355C234.831 44.2343 234.353 43.639 234.537 43.207C234.722 42.7697 240.596 30.2017 240.754 29.8803L241.566 29.3877C241.978 29.3877 242.28 29.5774 242.438 30.0278C242.591 30.4783 248.019 42.8118 248.163 43.1938C248.301 43.5758 247.996 44.2343 247.305 44.2343Z" fill="#0A83B8"/>
<path d="M174.736 23.3454C176.725 20.8323 179.239 18.6591 183.374 17.8187C187.509 16.9863 191.6 17.2972 195.162 18.2429C198.73 19.1859 203.429 21.0641 204.598 21.3618C206.176 21.7648 207.163 21.0483 207.748 20.1474C208.908 18.3825 214.031 9.7869 214.46 8.9255C214.886 8.0562 214.514 6.73644 213.245 6.16744C213.245 6.16744 204.445 2.79297 199.187 1.64443C193.93 0.485361 187.989 -0.389211 180.468 0.174519C172.953 0.738249 166.662 3.36987 162.645 6.57048C158.617 9.7711 155.968 13.575 154.439 16.8836C152.907 20.1843 151.341 25.0787 151.038 29.8415C150.914 31.7645 150.794 33.3292 150.756 34.9466C150.794 36.5772 150.914 38.1341 151.038 40.0571C151.341 44.8277 152.907 49.7222 154.439 53.0282C155.971 56.3262 158.62 60.1327 162.645 63.3281C166.662 66.5287 172.953 69.1629 180.468 69.7319C187.989 70.2957 193.175 69.9664 198.367 68.5992C199.657 68.2594 200.198 67.0002 200.198 67.0002C201.58 64.0709 206.731 53.4233 207.765 51.1236C208.531 49.4271 206.53 47.944 204.598 48.5473C203.452 48.9029 198.73 50.7258 195.162 51.6662C191.6 52.6093 187.506 52.9228 183.374 52.0825C179.239 51.2474 176.725 49.0741 174.736 46.5637C172.74 44.0559 171.6 40.0228 171.303 36.5246C171.26 36.0241 171.234 35.4946 171.229 34.9466C171.234 34.404 171.26 33.8719 171.303 33.3766C171.6 29.8783 172.74 25.8506 174.736 23.3428" fill="#0A83B8"/>
</g>
<defs>
<clipPath id="clip0_154_75">
<rect width="280" height="70" fill="white"/>
</clipPath>
</defs>
</svg>
